<mxfile host="65bd71144e">
    <diagram id="equc8s9AcIDlGDFc714V" name="Page-1">
        <mxGraphModel dx="1639" dy="1447" grid="1" gridSize="10" guides="1" tooltips="1" connect="1" arrows="1" fold="1" page="1" pageScale="1" pageWidth="850" pageHeight="1100" math="0" shadow="0">
            <root>
                <mxCell id="0"/>
                <mxCell id="1" parent="0"/>
                <mxCell id="2" value="┌────────────────────────┐&#xa;                                │     Sentinel VPC       │&#xa;                                │  (10.0.0.0/16, DNS ON)  │&#xa;                                └────────┬───────────────┘&#xa;                                         │&#xa;                           ┌─────────────▼──────────────┐&#xa;                           │       EC2 / Lambda         │  ← optional app layer&#xa;                           └─────────────┬──────────────┘&#xa;                                         │&#xa;                          API Calls ─────┼──────┐&#xa;                                         ▼      ▼&#xa;                            ┌─────────────────────┐&#xa;                            │     CloudTrail      │  ← multi-region, mgmt events&#xa;                            │   (sentinel-cloud)  │&#xa;                            └────────┬────────────┘&#xa;                                     │&#xa;                          Write logs to encrypted S3&#xa;                                     ▼&#xa;                         ┌────────────────────────────┐&#xa;                         │  S3 Bucket: sentinel-logs  │&#xa;                         │  🔒 AES256 + blocked public │&#xa;                         └────────┬───────────────────┘&#xa;                                  │&#xa;                          Digest hashes generated&#xa;                                  ▼&#xa;                         ┌────────────────────────────┐&#xa;                         │ CloudTrail Digest (sha256) │&#xa;                         │    Verifiable Integrity    │&#xa;                         └────────┬───────────────────┘&#xa;                                  │&#xa;                         ┌────────▼─────────┐&#xa;                         │   GuardDuty      │&#xa;                         │  🚨 Threat Intel  │&#xa;                         └──────────────────┘" style="text;whiteSpace=wrap;" parent="1" vertex="1">
                    <mxGeometry x="-20" y="-120" width="390" height="510" as="geometry"/>
                </mxCell>
            </root>
        </mxGraphModel>
    </diagram>
</mxfile>